<?xml version="1.0" encoding="utf-8" standalone="no"?>
<!DOCTYPE svg PUBLIC "-//W3C//DTD SVG 1.1//EN"
  "http://www.w3.org/Graphics/SVG/1.1/DTD/svg11.dtd">
<svg xmlns:xlink="http://www.w3.org/1999/xlink" width="252pt" height="216pt" viewBox="0 0 252 216" xmlns="http://www.w3.org/2000/svg" version="1.1">
 <metadata>
  <rdf:RDF xmlns:dc="http://purl.org/dc/elements/1.1/" xmlns:cc="http://creativecommons.org/ns#" xmlns:rdf="http://www.w3.org/1999/02/22-rdf-syntax-ns#">
   <cc:Work>
    <dc:type rdf:resource="http://purl.org/dc/dcmitype/StillImage"/>
    <dc:date>2025-06-11T11:50:50.556502</dc:date>
    <dc:format>image/svg+xml</dc:format>
    <dc:creator>
     <cc:Agent>
      <dc:title>Matplotlib v3.9.2, https://matplotlib.org/</dc:title>
     </cc:Agent>
    </dc:creator>
   </cc:Work>
  </rdf:RDF>
 </metadata>
 <defs>
  <style type="text/css">*{stroke-linejoin: round; stroke-linecap: butt}</style>
 </defs>
 <g id="figure_1">
  <g id="patch_1">
   <path d="M 0 216 
L 252 216 
L 252 0 
L 0 0 
z
" style="fill: #ffffff"/>
  </g>
  <g id="axes_1">
   <g id="patch_2">
    <path d="M 50.4 132.3 
L 239.4 132.3 
L 239.4 10.8 
L 50.4 10.8 
z
" style="fill: #ffffff"/>
   </g>
   <g id="matplotlib.axis_1">
    <g id="xtick_1">
     <g id="line2d_1">
      <path d="M 50.4 132.3 
L 50.4 10.8 
" style="fill: none; stroke: #e0e0e0; stroke-width: 0.8; stroke-linecap: square"/>
     </g>
     <g id="line2d_2"/>
    </g>
    <g id="xtick_2">
     <g id="line2d_3">
      <path d="M 77.4 132.3 
L 77.4 10.8 
" style="fill: none; stroke: #e0e0e0; stroke-width: 0.8; stroke-linecap: square"/>
     </g>
     <g id="line2d_4"/>
    </g>
    <g id="xtick_3">
     <g id="line2d_5">
      <path d="M 104.4 132.3 
L 104.4 10.8 
" style="fill: none; stroke: #e0e0e0; stroke-width: 0.8; stroke-linecap: square"/>
     </g>
     <g id="line2d_6"/>
    </g>
    <g id="xtick_4">
     <g id="line2d_7">
      <path d="M 131.4 132.3 
L 131.4 10.8 
" style="fill: none; stroke: #e0e0e0; stroke-width: 0.8; stroke-linecap: square"/>
     </g>
     <g id="line2d_8"/>
    </g>
    <g id="xtick_5">
     <g id="line2d_9">
      <path d="M 158.4 132.3 
L 158.4 10.8 
" style="fill: none; stroke: #e0e0e0; stroke-width: 0.8; stroke-linecap: square"/>
     </g>
     <g id="line2d_10"/>
    </g>
    <g id="xtick_6">
     <g id="line2d_11">
      <path d="M 185.4 132.3 
L 185.4 10.8 
" style="fill: none; stroke: #e0e0e0; stroke-width: 0.8; stroke-linecap: square"/>
     </g>
     <g id="line2d_12"/>
    </g>
    <g id="xtick_7">
     <g id="line2d_13">
      <path d="M 212.4 132.3 
L 212.4 10.8 
" style="fill: none; stroke: #e0e0e0; stroke-width: 0.8; stroke-linecap: square"/>
     </g>
     <g id="line2d_14"/>
    </g>
    <g id="xtick_8">
     <g id="line2d_15">
      <path d="M 239.4 132.3 
L 239.4 10.8 
" style="fill: none; stroke: #e0e0e0; stroke-width: 0.8; stroke-linecap: square"/>
     </g>
     <g id="line2d_16"/>
    </g>
   </g>
   <g id="matplotlib.axis_2">
    <g id="ytick_1">
     <g id="line2d_17">
      <path d="M 50.4 132.3 
L 239.4 132.3 
" style="fill: none; stroke: #e0e0e0; stroke-width: 0.8; stroke-linecap: square"/>
     </g>
     <g id="line2d_18">
      <defs>
       <path id="mf64305085c" d="M 0 0 
L -3.5 0 
" style="stroke: #000000; stroke-width: 0.8"/>
      </defs>
      <g>
       <use xlink:href="#mf64305085c" x="50.4" y="132.3" style="stroke: #000000; stroke-width: 0.8"/>
      </g>
     </g>
     <g id="text_1">
      <text style="font: 12px 'Helvetica Neue', 'Helvetica', 'Arial', sans-serif; text-anchor: end" x="43.4" y="136.584375" transform="rotate(-0 43.4 136.584375)">0.00</text>
     </g>
    </g>
    <g id="ytick_2">
     <g id="line2d_19">
      <path d="M 50.4 109.157143 
L 239.4 109.157143 
" style="fill: none; stroke: #e0e0e0; stroke-width: 0.8; stroke-linecap: square"/>
     </g>
     <g id="line2d_20">
      <g>
       <use xlink:href="#mf64305085c" x="50.4" y="109.157143" style="stroke: #000000; stroke-width: 0.8"/>
      </g>
     </g>
     <g id="text_2">
      <text style="font: 12px 'Helvetica Neue', 'Helvetica', 'Arial', sans-serif; text-anchor: end" x="43.4" y="113.441518" transform="rotate(-0 43.4 113.441518)">0.02</text>
     </g>
    </g>
    <g id="ytick_3">
     <g id="line2d_21">
      <path d="M 50.4 86.014286 
L 239.4 86.014286 
" style="fill: none; stroke: #e0e0e0; stroke-width: 0.8; stroke-linecap: square"/>
     </g>
     <g id="line2d_22">
      <g>
       <use xlink:href="#mf64305085c" x="50.4" y="86.014286" style="stroke: #000000; stroke-width: 0.8"/>
      </g>
     </g>
     <g id="text_3">
      <text style="font: 12px 'Helvetica Neue', 'Helvetica', 'Arial', sans-serif; text-anchor: end" x="43.4" y="90.298661" transform="rotate(-0 43.4 90.298661)">0.04</text>
     </g>
    </g>
    <g id="ytick_4">
     <g id="line2d_23">
      <path d="M 50.4 62.871429 
L 239.4 62.871429 
" style="fill: none; stroke: #e0e0e0; stroke-width: 0.8; stroke-linecap: square"/>
     </g>
     <g id="line2d_24">
      <g>
       <use xlink:href="#mf64305085c" x="50.4" y="62.871429" style="stroke: #000000; stroke-width: 0.8"/>
      </g>
     </g>
     <g id="text_4">
      <text style="font: 12px 'Helvetica Neue', 'Helvetica', 'Arial', sans-serif; text-anchor: end" x="43.4" y="67.155804" transform="rotate(-0 43.4 67.155804)">0.06</text>
     </g>
    </g>
    <g id="ytick_5">
     <g id="line2d_25">
      <path d="M 50.4 39.728571 
L 239.4 39.728571 
" style="fill: none; stroke: #e0e0e0; stroke-width: 0.8; stroke-linecap: square"/>
     </g>
     <g id="line2d_26">
      <g>
       <use xlink:href="#mf64305085c" x="50.4" y="39.728571" style="stroke: #000000; stroke-width: 0.8"/>
      </g>
     </g>
     <g id="text_5">
      <text style="font: 12px 'Helvetica Neue', 'Helvetica', 'Arial', sans-serif; text-anchor: end" x="43.4" y="44.012946" transform="rotate(-0 43.4 44.012946)">0.08</text>
     </g>
    </g>
    <g id="ytick_6">
     <g id="line2d_27">
      <path d="M 50.4 16.585714 
L 239.4 16.585714 
" style="fill: none; stroke: #e0e0e0; stroke-width: 0.8; stroke-linecap: square"/>
     </g>
     <g id="line2d_28">
      <g>
       <use xlink:href="#mf64305085c" x="50.4" y="16.585714" style="stroke: #000000; stroke-width: 0.8"/>
      </g>
     </g>
     <g id="text_6">
      <text style="font: 12px 'Helvetica Neue', 'Helvetica', 'Arial', sans-serif; text-anchor: end" x="43.4" y="20.870089" transform="rotate(-0 43.4 20.870089)">0.10</text>
     </g>
    </g>
    <g id="text_7">
     <text style="font: 12px 'Helvetica Neue', 'Helvetica', 'Arial', sans-serif; text-anchor: middle" x="13.68625" y="71.55" transform="rotate(-90 13.68625 71.55)">Mutation Rate</text>
    </g>
   </g>
   <g id="patch_3">
    <path d="M 79.56 132.3 
L 80.64 132.3 
L 80.64 109.603762 
L 79.56 109.603762 
z
" clip-path="url(#peadf812813)" style="fill: #56b4e9"/>
   </g>
   <g id="patch_4">
    <path d="M 89.01 132.3 
L 90.09 132.3 
L 90.09 39.13067 
L 89.01 39.13067 
z
" clip-path="url(#peadf812813)" style="fill: #56b4e9"/>
   </g>
   <g id="patch_5">
    <path d="M 90.36 132.3 
L 91.44 132.3 
L 91.44 52.016058 
L 90.36 52.016058 
z
" clip-path="url(#peadf812813)" style="fill: #56b4e9"/>
   </g>
   <g id="patch_6">
    <path d="M 93.06 132.3 
L 94.14 132.3 
L 94.14 36.506707 
L 93.06 36.506707 
z
" clip-path="url(#peadf812813)" style="fill: #56b4e9"/>
   </g>
   <g id="patch_7">
    <path d="M 101.16 132.3 
L 102.24 132.3 
L 102.24 117.603468 
L 101.16 117.603468 
z
" clip-path="url(#peadf812813)" style="fill: #56b4e9"/>
   </g>
   <g id="patch_8">
    <path d="M 103.86 132.3 
L 104.94 132.3 
L 104.94 63.513849 
L 103.86 63.513849 
z
" clip-path="url(#peadf812813)" style="fill: #56b4e9"/>
   </g>
   <g id="patch_9">
    <path d="M 105.21 132.3 
L 106.29 132.3 
L 106.29 93.630583 
L 105.21 93.630583 
z
" clip-path="url(#peadf812813)" style="fill: #56b4e9"/>
   </g>
   <g id="patch_10">
    <path d="M 106.56 132.3 
L 107.64 132.3 
L 107.64 110.11366 
L 106.56 110.11366 
z
" clip-path="url(#peadf812813)" style="fill: #56b4e9"/>
   </g>
   <g id="patch_11">
    <path d="M 107.91 132.3 
L 108.99 132.3 
L 108.99 98.150719 
L 107.91 98.150719 
z
" clip-path="url(#peadf812813)" style="fill: #56b4e9"/>
   </g>
   <g id="patch_12">
    <path d="M 110.61 132.3 
L 111.69 132.3 
L 111.69 115.808271 
L 110.61 115.808271 
z
" clip-path="url(#peadf812813)" style="fill: #56b4e9"/>
   </g>
   <g id="patch_13">
    <path d="M 111.96 132.3 
L 113.04 132.3 
L 113.04 101.696637 
L 111.96 101.696637 
z
" clip-path="url(#peadf812813)" style="fill: #56b4e9"/>
   </g>
   <g id="patch_14">
    <path d="M 113.31 132.3 
L 114.39 132.3 
L 114.39 110.868468 
L 113.31 110.868468 
z
" clip-path="url(#peadf812813)" style="fill: #56b4e9"/>
   </g>
   <g id="patch_15">
    <path d="M 114.66 132.3 
L 115.74 132.3 
L 115.74 99.731581 
L 114.66 99.731581 
z
" clip-path="url(#peadf812813)" style="fill: #56b4e9"/>
   </g>
   <g id="patch_16">
    <path d="M 116.01 132.3 
L 117.09 132.3 
L 117.09 19.023115 
L 116.01 19.023115 
z
" clip-path="url(#peadf812813)" style="fill: #56b4e9"/>
   </g>
   <g id="patch_17">
    <path d="M 121.41 132.3 
L 122.49 132.3 
L 122.49 120.96051 
L 121.41 120.96051 
z
" clip-path="url(#peadf812813)" style="fill: #56b4e9"/>
   </g>
   <g id="patch_18">
    <path d="M 125.46 132.3 
L 126.54 132.3 
L 126.54 115.991233 
L 125.46 115.991233 
z
" clip-path="url(#peadf812813)" style="fill: #56b4e9"/>
   </g>
   <g id="patch_19">
    <path d="M 126.81 132.3 
L 127.89 132.3 
L 127.89 122.282904 
L 126.81 122.282904 
z
" clip-path="url(#peadf812813)" style="fill: #56b4e9"/>
   </g>
   <g id="patch_20">
    <path d="M 130.86 132.3 
L 131.94 132.3 
L 131.94 73.801742 
L 130.86 73.801742 
z
" clip-path="url(#peadf812813)" style="fill: #56b4e9"/>
   </g>
   <g id="patch_21">
    <path d="M 132.21 132.3 
L 133.29 132.3 
L 133.29 40.088208 
L 132.21 40.088208 
z
" clip-path="url(#peadf812813)" style="fill: #56b4e9"/>
   </g>
   <g id="patch_22">
    <path d="M 133.56 132.3 
L 134.64 132.3 
L 134.64 90.026482 
L 133.56 90.026482 
z
" clip-path="url(#peadf812813)" style="fill: #56b4e9"/>
   </g>
   <g id="patch_23">
    <path d="M 134.91 132.3 
L 135.99 132.3 
L 135.99 78.370167 
L 134.91 78.370167 
z
" clip-path="url(#peadf812813)" style="fill: #56b4e9"/>
   </g>
   <g id="patch_24">
    <path d="M 136.26 132.3 
L 137.34 132.3 
L 137.34 98.568749 
L 136.26 98.568749 
z
" clip-path="url(#peadf812813)" style="fill: #56b4e9"/>
   </g>
   <g id="patch_25">
    <path d="M 138.96 132.3 
L 140.04 132.3 
L 140.04 97.866774 
L 138.96 97.866774 
z
" clip-path="url(#peadf812813)" style="fill: #56b4e9"/>
   </g>
   <g id="patch_26">
    <path d="M 140.31 132.3 
L 141.39 132.3 
L 141.39 0.134423 
L 140.31 0.134423 
z
" clip-path="url(#peadf812813)" style="fill: #56b4e9"/>
   </g>
   <g id="patch_27">
    <path d="M 141.66 132.3 
L 142.74 132.3 
L 142.74 108.401608 
L 141.66 108.401608 
z
" clip-path="url(#peadf812813)" style="fill: #56b4e9"/>
   </g>
   <g id="patch_28">
    <path d="M 145.71 132.3 
L 146.79 132.3 
L 146.79 57.511284 
L 145.71 57.511284 
z
" clip-path="url(#peadf812813)" style="fill: #56b4e9"/>
   </g>
   <g id="patch_29">
    <path d="M 151.11 132.3 
L 152.19 132.3 
L 152.19 126.219477 
L 151.11 126.219477 
z
" clip-path="url(#peadf812813)" style="fill: #56b4e9"/>
   </g>
   <g id="patch_30">
    <path d="M 152.46 132.3 
L 153.54 132.3 
L 153.54 121.56931 
L 152.46 121.56931 
z
" clip-path="url(#peadf812813)" style="fill: #56b4e9"/>
   </g>
   <g id="patch_31">
    <path d="M 155.16 132.3 
L 156.24 132.3 
L 156.24 72.846271 
L 155.16 72.846271 
z
" clip-path="url(#peadf812813)" style="fill: #56b4e9"/>
   </g>
   <g id="patch_32">
    <path d="M 157.86 132.3 
L 158.94 132.3 
L 158.94 70.745078 
L 157.86 70.745078 
z
" clip-path="url(#peadf812813)" style="fill: #e69f00"/>
   </g>
   <g id="patch_33">
    <path d="M 159.21 132.3 
L 160.29 132.3 
L 160.29 39.277423 
L 159.21 39.277423 
z
" clip-path="url(#peadf812813)" style="fill: #e69f00"/>
   </g>
   <g id="patch_34">
    <path d="M 160.56 132.3 
L 161.64 132.3 
L 161.64 12.334835 
L 160.56 12.334835 
z
" clip-path="url(#peadf812813)" style="fill: #e69f00"/>
   </g>
   <g id="patch_35">
    <path d="M 161.91 132.3 
L 162.99 132.3 
L 162.99 10.25169 
L 161.91 10.25169 
z
" clip-path="url(#peadf812813)" style="fill: #d55e00"/>
   </g>
   <g id="patch_36">
    <path d="M 163.26 132.3 
L 164.34 132.3 
L 164.34 100.39831 
L 163.26 100.39831 
z
" clip-path="url(#peadf812813)" style="fill: #e69f00"/>
   </g>
   <g id="patch_37">
    <path d="M 164.61 132.3 
L 165.69 132.3 
L 165.69 51.415313 
L 164.61 51.415313 
z
" clip-path="url(#peadf812813)" style="fill: #e69f00"/>
   </g>
   <g id="patch_38">
    <path d="M 167.31 132.3 
L 168.39 132.3 
L 168.39 108.745224 
L 167.31 108.745224 
z
" clip-path="url(#peadf812813)" style="fill: #e69f00"/>
   </g>
   <g id="patch_39">
    <path d="M 170.01 132.3 
L 171.09 132.3 
L 171.09 16.259173 
L 170.01 16.259173 
z
" clip-path="url(#peadf812813)" style="fill: #56b4e9"/>
   </g>
   <g id="patch_40">
    <path d="M 172.71 132.3 
L 173.79 132.3 
L 173.79 47.027217 
L 172.71 47.027217 
z
" clip-path="url(#peadf812813)" style="fill: #56b4e9"/>
   </g>
   <g id="patch_41">
    <path d="M 175.41 132.3 
L 176.49 132.3 
L 176.49 46.587812 
L 175.41 46.587812 
z
" clip-path="url(#peadf812813)" style="fill: #56b4e9"/>
   </g>
   <g id="patch_42">
    <path d="M 176.76 132.3 
L 177.84 132.3 
L 177.84 75.421544 
L 176.76 75.421544 
z
" clip-path="url(#peadf812813)" style="fill: #56b4e9"/>
   </g>
   <g id="patch_43">
    <path d="M 178.11 132.3 
L 179.19 132.3 
L 179.19 31.25053 
L 178.11 31.25053 
z
" clip-path="url(#peadf812813)" style="fill: #56b4e9"/>
   </g>
   <g id="patch_44">
    <path d="M 179.46 132.3 
L 180.54 132.3 
L 180.54 16.001426 
L 179.46 16.001426 
z
" clip-path="url(#peadf812813)" style="fill: #56b4e9"/>
   </g>
   <g id="patch_45">
    <path d="M 182.16 132.3 
L 183.24 132.3 
L 183.24 55.709544 
L 182.16 55.709544 
z
" clip-path="url(#peadf812813)" style="fill: #56b4e9"/>
   </g>
   <g id="patch_46">
    <path d="M 183.51 132.3 
L 184.59 132.3 
L 184.59 109.5719 
L 183.51 109.5719 
z
" clip-path="url(#peadf812813)" style="fill: #56b4e9"/>
   </g>
   <g id="patch_47">
    <path d="M 184.86 132.3 
L 185.94 132.3 
L 185.94 57.107345 
L 184.86 57.107345 
z
" clip-path="url(#peadf812813)" style="fill: #56b4e9"/>
   </g>
   <g id="patch_48">
    <path d="M 187.56 132.3 
L 188.64 132.3 
L 188.64 50.041601 
L 187.56 50.041601 
z
" clip-path="url(#peadf812813)" style="fill: #56b4e9"/>
   </g>
   <g id="patch_49">
    <path d="M 188.91 132.3 
L 189.99 132.3 
L 189.99 82.795068 
L 188.91 82.795068 
z
" clip-path="url(#peadf812813)" style="fill: #56b4e9"/>
   </g>
   <g id="patch_50">
    <path d="M 190.26 132.3 
L 191.34 132.3 
L 191.34 64.395046 
L 190.26 64.395046 
z
" clip-path="url(#peadf812813)" style="fill: #56b4e9"/>
   </g>
   <g id="patch_51">
    <path d="M 194.31 132.3 
L 195.39 132.3 
L 195.39 98.312242 
L 194.31 98.312242 
z
" clip-path="url(#peadf812813)" style="fill: #56b4e9"/>
   </g>
   <g id="patch_52">
    <path d="M 195.66 132.3 
L 196.74 132.3 
L 196.74 67.715306 
L 195.66 67.715306 
z
" clip-path="url(#peadf812813)" style="fill: #56b4e9"/>
   </g>
   <g id="patch_53">
    <path d="M 197.01 132.3 
L 198.09 132.3 
L 198.09 108.935211 
L 197.01 108.935211 
z
" clip-path="url(#peadf812813)" style="fill: #56b4e9"/>
   </g>
   <g id="patch_54">
    <path d="M 198.36 132.3 
L 199.44 132.3 
L 199.44 117.047445 
L 198.36 117.047445 
z
" clip-path="url(#peadf812813)" style="fill: #56b4e9"/>
   </g>
   <g id="patch_55">
    <path d="M 201.06 132.3 
L 202.14 132.3 
L 202.14 117.739326 
L 201.06 117.739326 
z
" clip-path="url(#peadf812813)" style="fill: #56b4e9"/>
   </g>
   <g id="patch_56">
    <path d="M 202.41 132.3 
L 203.49 132.3 
L 203.49 106.980164 
L 202.41 106.980164 
z
" clip-path="url(#peadf812813)" style="fill: #56b4e9"/>
   </g>
   <g id="patch_57">
    <path d="M 205.11 132.3 
L 206.19 132.3 
L 206.19 74.064021 
L 205.11 74.064021 
z
" clip-path="url(#peadf812813)" style="fill: #56b4e9"/>
   </g>
   <g id="patch_58">
    <path d="M 206.46 132.3 
L 207.54 132.3 
L 207.54 57.900796 
L 206.46 57.900796 
z
" clip-path="url(#peadf812813)" style="fill: #56b4e9"/>
   </g>
   <g id="patch_59">
    <path d="M 207.81 132.3 
L 208.89 132.3 
L 208.89 107.93087 
L 207.81 107.93087 
z
" clip-path="url(#peadf812813)" style="fill: #56b4e9"/>
   </g>
   <g id="patch_60">
    <path d="M 210.51 132.3 
L 211.59 132.3 
L 211.59 45.482416 
L 210.51 45.482416 
z
" clip-path="url(#peadf812813)" style="fill: #56b4e9"/>
   </g>
   <g id="patch_61">
    <path d="M 211.86 132.3 
L 212.94 132.3 
L 212.94 95.650086 
L 211.86 95.650086 
z
" clip-path="url(#peadf812813)" style="fill: #56b4e9"/>
   </g>
   <g id="patch_62">
    <path d="M 50.4 132.3 
L 50.4 10.8 
" style="fill: none; stroke: #000000; stroke-width: 0.8; stroke-linejoin: miter; stroke-linecap: square"/>
   </g>
   <g id="patch_63">
    <path d="M 50.4 132.3 
L 239.4 132.3 
" style="fill: none; stroke: #000000; stroke-width: 0.8; stroke-linejoin: miter; stroke-linecap: square"/>
   </g>
  </g>
  <g id="axes_2">
   <g id="patch_64">
    <path d="M 50.4 172.8 
L 239.4 172.8 
L 239.4 132.3 
L 50.4 132.3 
z
" style="fill: #ffffff"/>
   </g>
   <g id="patch_65">
    <path d="M 51.75 132.3 
C 51.75 137.027477 52.72777 141.708985 54.627354 146.076604 
C 56.526937 150.444223 59.311391 154.413013 62.821364 157.755844 
C 66.331336 161.098675 70.498566 163.750536 75.084566 165.559663 
C 79.670566 167.36879 84.586149 168.3 89.55 168.3 
C 94.513851 168.3 99.429434 167.36879 104.015434 165.559663 
C 108.601434 163.750536 112.768664 161.098675 116.278636 157.755844 
C 119.788609 154.413013 122.573063 150.444223 124.472646 146.076604 
C 126.37223 141.708985 127.35 137.027477 127.35 132.3 
" clip-path="url(#p077e0ceb6e)" style="fill: none; stroke: #808080; stroke-linejoin: miter"/>
   </g>
   <g id="patch_66">
    <path d="M 53.1 132.3 
C 53.1 136.858638 54.04285 141.372949 55.874591 145.584582 
C 57.706332 149.796215 60.391342 153.623263 63.775958 156.846707 
C 67.160574 160.070151 71.178975 162.627303 75.601189 164.371818 
C 80.023403 166.116333 84.76343 167.014286 89.55 167.014286 
C 94.33657 167.014286 99.076597 166.116333 103.498811 164.371818 
C 107.921025 162.627303 111.939426 160.070151 115.324042 156.846707 
C 118.708658 153.623263 121.393668 149.796215 123.225409 145.584582 
C 125.05715 141.372949 126 136.858638 126 132.3 
" clip-path="url(#p077e0ceb6e)" style="fill: none; stroke: #808080; stroke-linejoin: miter"/>
   </g>
   <g id="patch_67">
    <path d="M 54.45 132.3 
C 54.45 136.6898 55.35793 141.036914 57.121828 145.09256 
C 58.885727 149.148207 61.471292 152.833512 64.730552 155.93757 
C 67.989812 159.041627 71.859383 161.504069 76.117812 163.183973 
C 80.37624 164.863877 84.94071 165.728571 89.55 165.728571 
C 94.15929 165.728571 98.72376 164.863877 102.982188 163.183973 
C 107.240617 161.504069 111.110188 159.041627 114.369448 155.93757 
C 117.628708 152.833512 120.214273 149.148207 121.978172 145.09256 
C 123.74207 141.036914 124.65 136.6898 124.65 132.3 
" clip-path="url(#p077e0ceb6e)" style="fill: none; stroke: #808080; stroke-linejoin: miter"/>
   </g>
   <g id="patch_68">
    <path d="M 55.8 132.3 
C 55.8 136.520961 56.673009 140.700879 58.369066 144.600539 
C 60.065122 148.500199 62.551242 152.043762 65.685146 155.028432 
C 68.81905 158.013103 72.539791 160.380836 76.634434 161.996128 
C 80.729077 163.61142 85.117991 164.442857 89.55 164.442857 
C 93.982009 164.442857 98.370923 163.61142 102.465566 161.996128 
C 106.560209 160.380836 110.28095 158.013103 113.414854 155.028432 
C 116.548758 152.043762 119.034878 148.500199 120.730934 144.600539 
C 122.426991 140.700879 123.3 136.520961 123.3 132.3 
" clip-path="url(#p077e0ceb6e)" style="fill: none; stroke: #808080; stroke-linejoin: miter"/>
   </g>
   <g id="patch_69">
    <path d="M 57.15 132.3 
C 57.15 136.352123 57.988089 140.364844 59.616303 144.108517 
C 61.244517 147.852191 63.631193 151.254011 66.63974 154.119295 
C 69.648288 156.984579 73.2202 159.257602 77.151057 160.808283 
C 81.081914 162.358963 85.295271 163.157143 89.55 163.157143 
C 93.804729 163.157143 98.018086 162.358963 101.948943 160.808283 
C 105.8798 159.257602 109.451712 156.984579 112.46026 154.119295 
C 115.468807 151.254011 117.855483 147.852191 119.483697 144.108517 
C 121.111911 140.364844 121.95 136.352123 121.95 132.3 
" clip-path="url(#p077e0ceb6e)" style="fill: none; stroke: #808080; stroke-linejoin: miter"/>
   </g>
   <g id="patch_70">
    <path d="M 58.5 132.3 
C 58.5 136.183284 59.303168 140.028809 60.863541 143.616496 
C 62.423913 147.204183 64.711143 150.464261 67.594334 153.210158 
C 70.477526 155.956054 73.900608 158.134369 77.667679 159.620438 
C 81.434751 161.106506 85.472551 161.871429 89.55 161.871429 
C 93.627449 161.871429 97.665249 161.106506 101.432321 159.620438 
C 105.199392 158.134369 108.622474 155.956054 111.505666 153.210158 
C 114.388857 150.464261 116.676087 147.204183 118.236459 143.616496 
C 119.796832 140.028809 120.6 136.183284 120.6 132.3 
" clip-path="url(#p077e0ceb6e)" style="fill: none; stroke: #808080; stroke-linejoin: miter"/>
   </g>
   <g id="patch_71">
    <path d="M 59.85 132.3 
C 59.85 136.014446 60.618248 139.692774 62.110778 143.124474 
C 63.603308 146.556175 65.791093 149.67451 68.548929 152.30102 
C 71.306764 154.92753 74.581016 157.011136 78.184302 158.432592 
C 81.787588 159.854049 85.649832 160.585714 89.55 160.585714 
C 93.450168 160.585714 97.312412 159.854049 100.915698 158.432592 
C 104.518984 157.011136 107.793236 154.92753 110.551071 152.30102 
C 113.308907 149.67451 115.496692 146.556175 116.989222 143.124474 
C 118.481752 139.692774 119.25 136.014446 119.25 132.3 
" clip-path="url(#p077e0ceb6e)" style="fill: none; stroke: #808080; stroke-linejoin: miter"/>
   </g>
   <g id="patch_72">
    <path d="M 61.2 132.3 
C 61.2 135.845608 61.933328 139.356738 63.358015 142.632453 
C 64.782703 145.908167 66.871043 148.88476 69.503523 151.391883 
C 72.136002 153.899006 75.261425 155.887902 78.700925 157.244747 
C 82.140425 158.601593 85.827112 159.3 89.55 159.3 
C 93.272888 159.3 96.959575 158.601593 100.399075 157.244747 
C 103.838575 155.887902 106.963998 153.899006 109.596477 151.391883 
C 112.228957 148.88476 114.317297 145.908167 115.741985 142.632453 
C 117.166672 139.356738 117.9 135.845608 117.9 132.3 
" clip-path="url(#p077e0ceb6e)" style="fill: none; stroke: #808080; stroke-linejoin: miter"/>
   </g>
   <g id="patch_73">
    <path d="M 62.55 132.3 
C 62.55 135.676769 63.248407 139.020703 64.605253 142.140431 
C 65.962098 145.260159 67.950994 148.09501 70.458117 150.482746 
C 72.96524 152.870482 75.941833 154.764669 79.217547 156.056902 
C 82.493262 157.349136 86.004392 158.014286 89.55 158.014286 
C 93.095608 158.014286 96.606738 157.349136 99.882453 156.056902 
C 103.158167 154.764669 106.13476 152.870482 108.641883 150.482746 
C 111.149006 148.09501 113.137902 145.260159 114.494747 142.140431 
C 115.851593 139.020703 116.55 135.676769 116.55 132.3 
" clip-path="url(#p077e0ceb6e)" style="fill: none; stroke: #808080; stroke-linejoin: miter"/>
   </g>
   <g id="patch_74">
    <path d="M 63.9 132.3 
C 63.9 135.507931 64.563487 138.684668 65.85249 141.64841 
C 67.141493 144.612151 69.030944 147.305259 71.412711 149.573609 
C 73.794478 151.841958 76.622241 153.641435 79.73417 154.869057 
C 82.846098 156.096679 86.181673 156.728571 89.55 156.728571 
C 92.918327 156.728571 96.253902 156.096679 99.36583 154.869057 
C 102.477759 153.641435 105.305522 151.841958 107.687289 149.573609 
C 110.069056 147.305259 111.958507 144.612151 113.24751 141.64841 
C 114.536513 138.684668 115.2 135.507931 115.2 132.3 
" clip-path="url(#p077e0ceb6e)" style="fill: none; stroke: #808080; stroke-linejoin: miter"/>
   </g>
   <g id="patch_75">
    <path d="M 65.25 132.3 
C 65.25 135.339092 65.878567 138.348633 67.099727 141.156388 
C 68.320888 143.964143 70.110894 146.515509 72.367305 148.664471 
C 74.623716 150.813434 77.30265 152.518202 80.250793 153.681212 
C 83.198935 154.844222 86.358953 155.442857 89.55 155.442857 
C 92.741047 155.442857 95.901065 154.844222 98.849207 153.681212 
C 101.79735 152.518202 104.476284 150.813434 106.732695 148.664471 
C 108.989106 146.515509 110.779112 143.964143 112.000273 141.156388 
C 113.221433 138.348633 113.85 135.339092 113.85 132.3 
" clip-path="url(#p077e0ceb6e)" style="fill: none; stroke: #808080; stroke-linejoin: miter"/>
   </g>
   <g id="patch_76">
    <path d="M 69.3 132.3 
C 69.3 134.916996 69.841266 137.508545 70.892821 139.926334 
C 71.944376 142.344123 73.48577 144.541132 75.428791 146.391628 
C 77.371811 148.242124 79.678671 149.710118 82.217349 150.711599 
C 84.756028 151.71308 87.477154 152.228571 90.225 152.228571 
C 92.972846 152.228571 95.693972 151.71308 98.232651 150.711599 
C 100.771329 149.710118 103.078189 148.242124 105.021209 146.391628 
C 106.96423 144.541132 108.505624 142.344123 109.557179 139.926334 
C 110.608734 137.508545 111.15 134.916996 111.15 132.3 
" clip-path="url(#p077e0ceb6e)" style="fill: none; stroke: #808080; stroke-linejoin: miter"/>
   </g>
   <g id="patch_77">
    <path d="M 70.65 132.3 
C 70.65 134.748158 71.156345 137.17251 72.140058 139.434313 
C 73.123771 141.696115 74.56572 143.751382 76.383385 145.482491 
C 78.201049 147.2136 80.359079 148.586885 82.733972 149.523754 
C 85.108865 150.460623 87.654435 150.942857 90.225 150.942857 
C 92.795565 150.942857 95.341135 150.460623 97.716028 149.523754 
C 100.090921 148.586885 102.248951 147.2136 104.066615 145.482491 
C 105.88428 143.751382 107.326229 141.696115 108.309942 139.434313 
C 109.293655 137.17251 109.8 134.748158 109.8 132.3 
" clip-path="url(#p077e0ceb6e)" style="fill: none; stroke: #808080; stroke-linejoin: miter"/>
   </g>
   <g id="patch_78">
    <path d="M 72 132.3 
C 72 134.4949 72.453965 136.668457 73.335914 138.69628 
C 74.217864 140.724103 75.510646 142.566756 77.140276 144.118785 
C 78.769906 145.670813 80.704692 146.902035 82.833906 147.741986 
C 84.96312 148.581938 87.245355 149.014286 89.55 149.014286 
C 91.854645 149.014286 94.13688 148.581938 96.266094 147.741986 
C 98.395308 146.902035 100.330094 145.670813 101.959724 144.118785 
C 103.589354 142.566756 104.882136 140.724103 105.764086 138.69628 
C 106.646035 136.668457 107.1 134.4949 107.1 132.3 
" clip-path="url(#p077e0ceb6e)" style="fill: none; stroke: #808080; stroke-linejoin: miter"/>
   </g>
   <g id="patch_79">
    <path d="M 73.35 132.3 
C 73.35 134.326061 73.769044 136.332422 74.583152 138.204259 
C 75.397259 140.076095 76.590596 141.777006 78.09487 143.209647 
C 79.599144 144.642289 81.3851 145.778801 83.350528 146.554141 
C 85.315957 147.329482 87.422635 147.728571 89.55 147.728571 
C 91.677365 147.728571 93.784043 147.329482 95.749472 146.554141 
C 97.7149 145.778801 99.500856 144.642289 101.00513 143.209647 
C 102.509404 141.777006 103.702741 140.076095 104.516848 138.204259 
C 105.330956 136.332422 105.75 134.326061 105.75 132.3 
" clip-path="url(#p077e0ceb6e)" style="fill: none; stroke: #808080; stroke-linejoin: miter"/>
   </g>
   <g id="patch_80">
    <path d="M 74.7 132.3 
C 74.7 134.072804 75.066664 135.828369 75.779008 137.466226 
C 76.491351 139.104083 77.535522 140.59238 78.851761 141.845942 
C 80.168001 143.099503 81.730712 144.093951 83.450462 144.772374 
C 85.170212 145.450796 87.013556 145.8 88.875 145.8 
C 90.736444 145.8 92.579788 145.450796 94.299538 144.772374 
C 96.019288 144.093951 97.581999 143.099503 98.898239 141.845942 
C 100.214478 140.59238 101.258649 139.104083 101.970992 137.466226 
C 102.683336 135.828369 103.05 134.072804 103.05 132.3 
" clip-path="url(#p077e0ceb6e)" style="fill: none; stroke: #808080; stroke-linejoin: miter"/>
   </g>
   <g id="patch_81">
    <path d="M 76.05 132.3 
C 76.05 133.903965 76.381744 135.492334 77.026245 136.974205 
C 77.670746 138.456075 78.615472 139.80263 79.806356 140.936804 
C 80.997239 142.070979 82.411121 142.970718 83.967085 143.584529 
C 85.523049 144.19834 87.190836 144.514286 88.875 144.514286 
C 90.559164 144.514286 92.226951 144.19834 93.782915 143.584529 
C 95.338879 142.970718 96.752761 142.070979 97.943644 140.936804 
C 99.134528 139.80263 100.079254 138.456075 100.723755 136.974205 
C 101.368256 135.492334 101.7 133.903965 101.7 132.3 
" clip-path="url(#p077e0ceb6e)" style="fill: none; stroke: #808080; stroke-linejoin: miter"/>
   </g>
   <g id="patch_82">
    <path d="M 77.4 132.3 
C 77.4 133.735127 77.696823 135.156299 78.273482 136.482183 
C 78.850142 137.808068 79.695422 139.012879 80.76095 140.027667 
C 81.826477 141.042455 83.091529 141.847484 84.483708 142.396683 
C 85.875886 142.945883 87.368117 143.228571 88.875 143.228571 
C 90.381883 143.228571 91.874114 142.945883 93.266292 142.396683 
C 94.658471 141.847484 95.923523 141.042455 96.98905 140.027667 
C 98.054578 139.012879 98.899858 137.808068 99.476518 136.482183 
C 100.053177 135.156299 100.35 133.735127 100.35 132.3 
" clip-path="url(#p077e0ceb6e)" style="fill: none; stroke: #808080; stroke-linejoin: miter"/>
   </g>
   <g id="patch_83">
    <path d="M 78.75 132.3 
C 78.75 133.566288 79.011903 134.820264 79.52072 135.990162 
C 80.029537 137.16006 80.775373 138.223129 81.715544 139.11853 
C 82.655715 140.013931 83.771937 140.724251 85.00033 141.208838 
C 86.228723 141.693426 87.545397 141.942857 88.875 141.942857 
C 90.204603 141.942857 91.521277 141.693426 92.74967 141.208838 
C 93.978063 140.724251 95.094285 140.013931 96.034456 139.11853 
C 96.974627 138.223129 97.720463 137.16006 98.22928 135.990162 
C 98.738097 134.820264 99 133.566288 99 132.3 
" clip-path="url(#p077e0ceb6e)" style="fill: none; stroke: #808080; stroke-linejoin: miter"/>
   </g>
   <g id="patch_84">
    <path d="M 80.1 132.3 
C 80.1 133.39745 80.326982 134.484229 80.767957 135.49814 
C 81.208932 136.512052 81.855323 137.433378 82.670138 138.209392 
C 83.484953 138.985407 84.452346 139.601017 85.516953 140.020993 
C 86.58156 140.440969 87.722678 140.657143 88.875 140.657143 
C 90.027322 140.657143 91.16844 140.440969 92.233047 140.020993 
C 93.297654 139.601017 94.265047 138.985407 95.079862 138.209392 
C 95.894677 137.433378 96.541068 136.512052 96.982043 135.49814 
C 97.423018 134.484229 97.65 133.39745 97.65 132.3 
" clip-path="url(#p077e0ceb6e)" style="fill: none; stroke: #808080; stroke-linejoin: miter"/>
   </g>
   <g id="patch_85">
    <path d="M 81.45 132.3 
C 81.45 133.228611 81.642062 134.148193 82.015194 135.006119 
C 82.388327 135.864044 82.935273 136.643628 83.624732 137.300255 
C 84.314191 137.956883 85.132754 138.477784 86.033576 138.833148 
C 86.934397 139.188512 87.899958 139.371429 88.875 139.371429 
C 89.850042 139.371429 90.815603 139.188512 91.716424 138.833148 
C 92.617246 138.477784 93.435809 137.956883 94.125268 137.300255 
C 94.814727 136.643628 95.361673 135.864044 95.734806 135.006119 
C 96.107938 134.148193 96.3 133.228611 96.3 132.3 
" clip-path="url(#p077e0ceb6e)" style="fill: none; stroke: #808080; stroke-linejoin: miter"/>
   </g>
   <g id="patch_86">
    <path d="M 82.8 132.3 
C 82.8 133.059773 82.957142 133.812158 83.262432 134.514097 
C 83.567722 135.216036 84.015224 135.853877 84.579326 136.391118 
C 85.143429 136.928358 85.813162 137.35455 86.550198 137.645303 
C 87.287234 137.936056 88.077238 138.085714 88.875 138.085714 
C 89.672762 138.085714 90.462766 137.936056 91.199802 137.645303 
C 91.936838 137.35455 92.606571 136.928358 93.170674 136.391118 
C 93.734776 135.853877 94.182278 135.216036 94.487568 134.514097 
C 94.792858 133.812158 94.95 133.059773 94.95 132.3 
" clip-path="url(#p077e0ceb6e)" style="fill: none; stroke: #808080; stroke-linejoin: miter"/>
   </g>
   <g id="patch_87">
    <path d="M 143.55 132.3 
C 143.55 132.890935 143.672221 133.476123 143.909669 134.022075 
C 144.147117 134.568028 144.495174 135.064127 144.93392 135.481981 
C 145.372667 135.899834 145.893571 136.231317 146.466821 136.457458 
C 147.040071 136.683599 147.654519 136.8 148.275 136.8 
C 148.895481 136.8 149.509929 136.683599 150.083179 136.457458 
C 150.656429 136.231317 151.177333 135.899834 151.61608 135.481981 
C 152.054826 135.064127 152.402883 134.568028 152.640331 134.022075 
C 152.877779 133.476123 153 132.890935 153 132.3 
" clip-path="url(#p077e0ceb6e)" style="fill: none; stroke: #808080; stroke-linejoin: miter"/>
   </g>
   <g id="patch_88">
    <path d="M 144.9 132.3 
C 144.9 132.722096 144.987301 133.140088 145.156907 133.530054 
C 145.326512 133.92002 145.575124 134.274376 145.888515 134.572843 
C 146.201905 134.87131 146.573979 135.108084 146.983443 135.269613 
C 147.392908 135.431142 147.831799 135.514286 148.275 135.514286 
C 148.718201 135.514286 149.157092 135.431142 149.566557 135.269613 
C 149.976021 135.108084 150.348095 134.87131 150.661485 134.572843 
C 150.974876 134.274376 151.223488 133.92002 151.393093 133.530054 
C 151.562699 133.140088 151.65 132.722096 151.65 132.3 
" clip-path="url(#p077e0ceb6e)" style="fill: none; stroke: #808080; stroke-linejoin: miter"/>
   </g>
   <g id="patch_89">
    <path d="M 197.55 132.3 
C 197.55 134.157223 197.934124 135.996387 198.680389 137.712237 
C 199.426654 139.428087 200.520547 140.987255 201.899464 142.30051 
C 203.278382 143.613765 204.915508 144.655568 206.717151 145.366296 
C 208.518794 146.077025 210.449916 146.442857 212.4 146.442857 
C 214.350084 146.442857 216.281206 146.077025 218.082849 145.366296 
C 219.884492 144.655568 221.521618 143.613765 222.900536 142.30051 
C 224.279453 140.987255 225.373346 139.428087 226.119611 137.712237 
C 226.865876 135.996387 227.25 134.157223 227.25 132.3 
" clip-path="url(#p077e0ceb6e)" style="fill: none; stroke: #808080; stroke-linejoin: miter"/>
   </g>
   <g id="patch_90">
    <path d="M 198.9 132.3 
C 198.9 133.988385 199.249204 135.660352 199.927626 137.220216 
C 200.606049 138.780079 201.600497 140.197505 202.854058 141.391373 
C 204.10762 142.585241 205.595917 143.532334 207.233774 144.178451 
C 208.871631 144.824568 210.627196 145.157143 212.4 145.157143 
C 214.172804 145.157143 215.928369 144.824568 217.566226 144.178451 
C 219.204083 143.532334 220.69238 142.585241 221.945942 141.391373 
C 223.199503 140.197505 224.193951 138.780079 224.872374 137.220216 
C 225.550796 135.660352 225.9 133.988385 225.9 132.3 
" clip-path="url(#p077e0ceb6e)" style="fill: none; stroke: #808080; stroke-linejoin: miter"/>
   </g>
   <g id="patch_91">
    <path d="M 200.25 132.3 
C 200.25 133.819546 200.564283 135.324316 201.174864 136.728194 
C 201.785444 138.132072 202.680447 139.407754 203.808653 140.482236 
C 204.936858 141.556717 206.276325 142.409101 207.750396 142.990606 
C 209.224468 143.572111 210.804477 143.871429 212.4 143.871429 
C 213.995523 143.871429 215.575532 143.572111 217.049604 142.990606 
C 218.523675 142.409101 219.863142 141.556717 220.991347 140.482236 
C 222.119553 139.407754 223.014556 138.132072 223.625136 136.728194 
C 224.235717 135.324316 224.55 133.819546 224.55 132.3 
" clip-path="url(#p077e0ceb6e)" style="fill: none; stroke: #808080; stroke-linejoin: miter"/>
   </g>
   <g id="patch_92">
    <path d="M 201.6 132.3 
C 201.6 133.650708 201.879363 134.988281 202.422101 136.236172 
C 202.964839 137.484064 203.760398 138.618004 204.763247 139.573098 
C 205.766096 140.528193 206.956733 141.285867 208.267019 141.802761 
C 209.577305 142.319654 210.981757 142.585714 212.4 142.585714 
C 213.818243 142.585714 215.222695 142.319654 216.532981 141.802761 
C 217.843267 141.285867 219.033904 140.528193 220.036753 139.573098 
C 221.039602 138.618004 221.835161 137.484064 222.377899 136.236172 
C 222.920637 134.988281 223.2 133.650708 223.2 132.3 
" clip-path="url(#p077e0ceb6e)" style="fill: none; stroke: #808080; stroke-linejoin: miter"/>
   </g>
   <g id="patch_93">
    <path d="M 202.95 132.3 
C 202.95 133.481869 203.194443 134.652246 203.669338 135.744151 
C 204.144234 136.836056 204.840348 137.828253 205.717841 138.663961 
C 206.595334 139.499669 207.637142 140.162634 208.783642 140.614916 
C 209.930142 141.067198 211.159037 141.3 212.4 141.3 
C 213.640963 141.3 214.869858 141.067198 216.016358 140.614916 
C 217.162858 140.162634 218.204666 139.499669 219.082159 138.663961 
C 219.959652 137.828253 220.655766 136.836056 221.130662 135.744151 
C 221.605557 134.652246 221.85 133.481869 221.85 132.3 
" clip-path="url(#p077e0ceb6e)" style="fill: none; stroke: #808080; stroke-linejoin: miter"/>
   </g>
   <g id="patch_94">
    <path d="M 208.35 132.3 
C 208.35 132.890935 208.472221 133.476123 208.709669 134.022075 
C 208.947117 134.568028 209.295174 135.064127 209.73392 135.481981 
C 210.172667 135.899834 210.693571 136.231317 211.266821 136.457458 
C 211.840071 136.683599 212.454519 136.8 213.075 136.8 
C 213.695481 136.8 214.309929 136.683599 214.883179 136.457458 
C 215.456429 136.231317 215.977333 135.899834 216.41608 135.481981 
C 216.854826 135.064127 217.202883 134.568028 217.440331 134.022075 
C 217.677779 133.476123 217.8 132.890935 217.8 132.3 
" clip-path="url(#p077e0ceb6e)" style="fill: none; stroke: #808080; stroke-linejoin: miter"/>
   </g>
   <g id="patch_95">
    <path d="M 209.7 132.3 
C 209.7 132.722096 209.787301 133.140088 209.956907 133.530054 
C 210.126512 133.92002 210.375124 134.274376 210.688515 134.572843 
C 211.001905 134.87131 211.373979 135.108084 211.783443 135.269613 
C 212.192908 135.431142 212.631799 135.514286 213.075 135.514286 
C 213.518201 135.514286 213.957092 135.431142 214.366557 135.269613 
C 214.776021 135.108084 215.148095 134.87131 215.461485 134.572843 
C 215.774876 134.274376 216.023488 133.92002 216.193093 133.530054 
C 216.362699 133.140088 216.45 132.722096 216.45 132.3 
" clip-path="url(#p077e0ceb6e)" style="fill: none; stroke: #808080; stroke-linejoin: miter"/>
   </g>
   <g id="matplotlib.axis_3">
    <g id="xtick_9">
     <g id="line2d_29">
      <defs>
       <path id="m76d5effc05" d="M 0 0 
L 0 3.5 
" style="stroke: #000000; stroke-width: 0.8"/>
      </defs>
      <g>
       <use xlink:href="#m76d5effc05" x="50.4" y="172.8" style="stroke: #000000; stroke-width: 0.8"/>
      </g>
     </g>
     <g id="text_8">
      <text style="font: 12px 'Helvetica Neue', 'Helvetica', 'Arial', sans-serif; text-anchor: middle" x="50.4" y="188.36875" transform="rotate(-0 50.4 188.36875)">0</text>
     </g>
    </g>
    <g id="xtick_10">
     <g id="line2d_30">
      <g>
       <use xlink:href="#m76d5effc05" x="77.4" y="172.8" style="stroke: #000000; stroke-width: 0.8"/>
      </g>
     </g>
     <g id="text_9">
      <text style="font: 12px 'Helvetica Neue', 'Helvetica', 'Arial', sans-serif; text-anchor: middle" x="77.4" y="188.36875" transform="rotate(-0 77.4 188.36875)">20</text>
     </g>
    </g>
    <g id="xtick_11">
     <g id="line2d_31">
      <g>
       <use xlink:href="#m76d5effc05" x="104.4" y="172.8" style="stroke: #000000; stroke-width: 0.8"/>
      </g>
     </g>
     <g id="text_10">
      <text style="font: 12px 'Helvetica Neue', 'Helvetica', 'Arial', sans-serif; text-anchor: middle" x="104.4" y="188.36875" transform="rotate(-0 104.4 188.36875)">40</text>
     </g>
    </g>
    <g id="xtick_12">
     <g id="line2d_32">
      <g>
       <use xlink:href="#m76d5effc05" x="131.4" y="172.8" style="stroke: #000000; stroke-width: 0.8"/>
      </g>
     </g>
     <g id="text_11">
      <text style="font: 12px 'Helvetica Neue', 'Helvetica', 'Arial', sans-serif; text-anchor: middle" x="131.4" y="188.36875" transform="rotate(-0 131.4 188.36875)">60</text>
     </g>
    </g>
    <g id="xtick_13">
     <g id="line2d_33">
      <g>
       <use xlink:href="#m76d5effc05" x="158.4" y="172.8" style="stroke: #000000; stroke-width: 0.8"/>
      </g>
     </g>
     <g id="text_12">
      <text style="font: 12px 'Helvetica Neue', 'Helvetica', 'Arial', sans-serif; text-anchor: middle" x="158.4" y="188.36875" transform="rotate(-0 158.4 188.36875)">80</text>
     </g>
    </g>
    <g id="xtick_14">
     <g id="line2d_34">
      <g>
       <use xlink:href="#m76d5effc05" x="185.4" y="172.8" style="stroke: #000000; stroke-width: 0.8"/>
      </g>
     </g>
     <g id="text_13">
      <text style="font: 12px 'Helvetica Neue', 'Helvetica', 'Arial', sans-serif; text-anchor: middle" x="185.4" y="188.36875" transform="rotate(-0 185.4 188.36875)">100</text>
     </g>
    </g>
    <g id="xtick_15">
     <g id="line2d_35">
      <g>
       <use xlink:href="#m76d5effc05" x="212.4" y="172.8" style="stroke: #000000; stroke-width: 0.8"/>
      </g>
     </g>
     <g id="text_14">
      <text style="font: 12px 'Helvetica Neue', 'Helvetica', 'Arial', sans-serif; text-anchor: middle" x="212.4" y="188.36875" transform="rotate(-0 212.4 188.36875)">120</text>
     </g>
    </g>
    <g id="xtick_16">
     <g id="line2d_36">
      <g>
       <use xlink:href="#m76d5effc05" x="239.4" y="172.8" style="stroke: #000000; stroke-width: 0.8"/>
      </g>
     </g>
     <g id="text_15">
      <text style="font: 12px 'Helvetica Neue', 'Helvetica', 'Arial', sans-serif; text-anchor: middle" x="239.4" y="188.36875" transform="rotate(-0 239.4 188.36875)">140</text>
     </g>
    </g>
    <g id="text_16">
     <text style="font: 12px 'Helvetica Neue', 'Helvetica', 'Arial', sans-serif; text-anchor: middle" x="144.9" y="203.301875" transform="rotate(-0 144.9 203.301875)">Position</text>
    </g>
   </g>
   <g id="matplotlib.axis_4"/>
   <g id="patch_96">
    <path d="M 50.4 172.8 
L 239.4 172.8 
" style="fill: none; stroke: #000000; stroke-width: 0.8; stroke-linejoin: miter; stroke-linecap: square"/>
   </g>
  </g>
 </g>
 <defs>
  <clipPath id="peadf812813">
   <rect x="50.4" y="10.8" width="189" height="121.5"/>
  </clipPath>
  <clipPath id="p077e0ceb6e">
   <rect x="50.4" y="132.3" width="189" height="40.5"/>
  </clipPath>
 </defs>
</svg>
