<?xml version="1.0" encoding="UTF-8" standalone="no"?>
<!-- Created with Inkscape (http://www.inkscape.org/) -->

<svg
   width="49.57822mm"
   height="19.422371mm"
   viewBox="0 0 49.57822 19.422371"
   version="1.1"
   id="svg1"
   inkscape:version="1.3 (0e150ed, 2023-07-21)"
   sodipodi:docname="legend.svg"
   inkscape:export-filename="legend.png"
   inkscape:export-xdpi="300"
   inkscape:export-ydpi="300"
   xmlns:inkscape="http://www.inkscape.org/namespaces/inkscape"
   xmlns:sodipodi="http://sodipodi.sourceforge.net/DTD/sodipodi-0.dtd"
   xmlns="http://www.w3.org/2000/svg"
   xmlns:svg="http://www.w3.org/2000/svg">
  <sodipodi:namedview
     id="namedview1"
     pagecolor="#505050"
     bordercolor="#ffffff"
     borderopacity="1"
     inkscape:showpageshadow="0"
     inkscape:pageopacity="0"
     inkscape:pagecheckerboard="1"
     inkscape:deskcolor="#505050"
     inkscape:document-units="mm"
     inkscape:zoom="3.5688087"
     inkscape:cx="100.73389"
     inkscape:cy="9.1066803"
     inkscape:window-width="1648"
     inkscape:window-height="988"
     inkscape:window-x="147"
     inkscape:window-y="25"
     inkscape:window-maximized="0"
     inkscape:current-layer="layer1" />
  <defs
     id="defs1" />
  <g
     inkscape:label="Layer 1"
     inkscape:groupmode="layer"
     id="layer1"
     transform="translate(-144.12946,-111.28768)">
    <path
       d="m 168.91857,130.71005 h 24.78911 v -19.42237 h -24.78911 z"
       style="fill:#ffffff;stroke-width:0.352779;stroke-linecap:butt;stroke-linejoin:round"
       id="path1" />
    <path
       d="m 170.25044,114.88119 h 0.56371 0.5637 0.74518 0.5637 0.56371"
       style="fill:none;stroke:#0072b2;stroke-width:0.352778;stroke-linecap:square;stroke-linejoin:round"
       id="path232" />
    <path
       id="use238"
       d="m 171.75044,115.41036 c 0.14034,0 0.27494,-0.0558 0.37417,-0.15499 0.0992,-0.0992 0.15499,-0.23384 0.15499,-0.37418 0,-0.14034 -0.0558,-0.27494 -0.15499,-0.37418 -0.0992,-0.0992 -0.23383,-0.15499 -0.37417,-0.15499 -0.14034,0 -0.27493,0.0558 -0.37418,0.15499 -0.0992,0.0992 -0.15498,0.23384 -0.15498,0.37418 0,0.14034 0.0558,0.27494 0.15498,0.37418 0.0992,0.0992 0.23384,0.15499 0.37418,0.15499 z"
       style="fill:#0072b2;stroke:#0072b2;stroke-width:0.352778;stroke-linecap:butt;stroke-linejoin:round" />
    <path
       d="m 170.25044,119.02021 h 0.56371 0.5637 0.74518 0.5637 0.56371"
       style="fill:#cc79a7;fill-opacity:1;stroke:#cc79a7;stroke-width:0.352778;stroke-linecap:square;stroke-linejoin:round;stroke-opacity:1"
       id="path232-1" />
    <path
       id="use238-4"
       d="m 171.75044,119.54938 c 0.14034,0 0.27494,-0.0558 0.37417,-0.15499 0.0992,-0.0992 0.15499,-0.23384 0.15499,-0.37418 0,-0.14034 -0.0558,-0.27494 -0.15499,-0.37418 -0.0992,-0.0992 -0.23383,-0.15499 -0.37417,-0.15499 -0.14034,0 -0.27493,0.0558 -0.37418,0.15499 -0.0992,0.0992 -0.15498,0.23384 -0.15498,0.37418 0,0.14034 0.0558,0.27494 0.15498,0.37418 0.0992,0.0992 0.23384,0.15499 0.37418,0.15499 z"
       style="fill:#cc79a7;fill-opacity:1;stroke:#cc79a7;stroke-width:0.352778;stroke-linecap:butt;stroke-linejoin:round;stroke-opacity:1" />
    <path
       d="m 170.25044,123.15922 h 0.56371 0.5637 0.74518 0.5637 0.56371"
       style="fill:#e69f00;fill-opacity:1;stroke:#e69f00;stroke-width:0.352778;stroke-linecap:square;stroke-linejoin:round;stroke-opacity:1"
       id="path232-1-8" />
    <path
       id="use238-4-4"
       d="m 171.75044,123.68839 c 0.14034,0 0.27494,-0.0558 0.37417,-0.15499 0.0992,-0.0992 0.15499,-0.23384 0.15499,-0.37418 0,-0.14034 -0.0558,-0.27494 -0.15499,-0.37418 -0.0992,-0.0992 -0.23383,-0.15499 -0.37417,-0.15499 -0.14034,0 -0.27493,0.0558 -0.37418,0.15499 -0.0992,0.0992 -0.15498,0.23384 -0.15498,0.37418 0,0.14034 0.0558,0.27494 0.15498,0.37418 0.0992,0.0992 0.23384,0.15499 0.37418,0.15499 z"
       style="fill:#e69f00;fill-opacity:1;stroke:#e69f00;stroke-width:0.352778;stroke-linecap:butt;stroke-linejoin:round;stroke-opacity:1" />
    <path
       d="m 170.25044,127.29824 h 0.56371 0.5637 0.74518 0.5637 0.56371"
       style="fill:#009e73;fill-opacity:1;stroke:#009e73;stroke-width:0.352778;stroke-linecap:square;stroke-linejoin:round;stroke-opacity:1"
       id="path232-1-8-6" />
    <path
       id="use238-4-4-0"
       d="m 171.75044,127.82741 c 0.14034,0 0.27494,-0.0558 0.37417,-0.15499 0.0992,-0.0992 0.15499,-0.23384 0.15499,-0.37418 0,-0.14034 -0.0558,-0.27494 -0.15499,-0.37418 -0.0992,-0.0992 -0.23383,-0.15499 -0.37417,-0.15499 -0.14034,0 -0.27493,0.0558 -0.37418,0.15499 -0.0992,0.0992 -0.15498,0.23384 -0.15498,0.37418 0,0.14034 0.0558,0.27494 0.15498,0.37418 0.0992,0.0992 0.23384,0.15499 0.37418,0.15499 z"
       style="fill:#009e73;fill-opacity:1;stroke:#009e73;stroke-width:0.352778;stroke-linecap:butt;stroke-linejoin:round;stroke-opacity:1" />
    <path
       style="fill:none;stroke:#009e73;stroke-width:0.502296;stroke-linecap:square;stroke-linejoin:round"
       id="path205"
       d="" />
    <path
       style="fill:none;stroke:#009e73;stroke-width:0.502296;stroke-linecap:square;stroke-linejoin:round"
       id="path238"
       d="" />
    <text
       style="font-style:normal;font-variant:normal;font-weight:normal;font-stretch:normal;font-size:4.23333px;line-height:normal;font-family:'Helvetica Neue', Helvetica, Arial, sans-serif;stroke-width:0.352778;stroke-linecap:butt;stroke-linejoin:round"
       id="text268"
       x="174.77206"
       y="116.39461">SEISMIC</text>
    <text
       style="font-style:normal;font-variant:normal;font-weight:normal;font-stretch:normal;font-size:4.23333px;line-height:normal;font-family:'Helvetica Neue', Helvetica, Arial, sans-serif;stroke-width:0.352778;stroke-linecap:butt;stroke-linejoin:round"
       id="text268-3"
       x="174.5985"
       y="120.53362">DANCE</text>
    <text
       style="font-style:normal;font-variant:normal;font-weight:normal;font-stretch:normal;font-size:4.23333px;line-height:normal;font-family:'Helvetica Neue', Helvetica, Arial, sans-serif;stroke-width:0.352778;stroke-linecap:butt;stroke-linejoin:round"
       id="text268-1"
       x="174.5985"
       y="124.67264">DRACO</text>
    <text
       style="font-style:normal;font-variant:normal;font-weight:normal;font-stretch:normal;font-size:4.23333px;line-height:normal;font-family:'Helvetica Neue', Helvetica, Arial, sans-serif;stroke-width:0.352778;stroke-linecap:butt;stroke-linejoin:round"
       id="text268-3-7"
       x="174.5985"
       y="128.80954">DREEM</text>
    <path
       d="m 144.12946,130.71005 h 24.78911 v -19.42237 h -24.78911 z"
       style="fill:#ffffff;stroke-width:0.352779;stroke-linecap:butt;stroke-linejoin:round"
       id="path1-3" />
    <path
       id="use238-43"
       d="m 147.93217,115.41036 c 0.14034,0 0.27494,-0.0558 0.37417,-0.15499 0.0992,-0.0992 0.15499,-0.23384 0.15499,-0.37418 0,-0.14034 -0.0558,-0.27494 -0.15499,-0.37418 -0.0992,-0.0992 -0.23383,-0.15499 -0.37417,-0.15499 -0.14034,0 -0.27493,0.0558 -0.37418,0.15499 -0.0992,0.0992 -0.15498,0.23384 -0.15498,0.37418 0,0.14034 0.0558,0.27494 0.15498,0.37418 0.0992,0.0992 0.23384,0.15499 0.37418,0.15499 z"
       style="fill:#0072b2;stroke:#0072b2;stroke-width:0.352778;stroke-linecap:butt;stroke-linejoin:round" />
    <path
       id="use238-4-5"
       d="m 147.93217,119.54938 c 0.14034,0 0.27494,-0.0558 0.37417,-0.15499 0.0992,-0.0992 0.15499,-0.23384 0.15499,-0.37418 0,-0.14034 -0.0558,-0.27494 -0.15499,-0.37418 -0.0992,-0.0992 -0.23383,-0.15499 -0.37417,-0.15499 -0.14034,0 -0.27493,0.0558 -0.37418,0.15499 -0.0992,0.0992 -0.15498,0.23384 -0.15498,0.37418 0,0.14034 0.0558,0.27494 0.15498,0.37418 0.0992,0.0992 0.23384,0.15499 0.37418,0.15499 z"
       style="fill:#cc79a7;fill-opacity:1;stroke:#cc79a7;stroke-width:0.352778;stroke-linecap:butt;stroke-linejoin:round;stroke-opacity:1" />
    <path
       id="use238-4-4-5"
       d="m 147.93217,123.68839 c 0.14034,0 0.27494,-0.0558 0.37417,-0.15499 0.0992,-0.0992 0.15499,-0.23384 0.15499,-0.37418 0,-0.14034 -0.0558,-0.27494 -0.15499,-0.37418 -0.0992,-0.0992 -0.23383,-0.15499 -0.37417,-0.15499 -0.14034,0 -0.27493,0.0558 -0.37418,0.15499 -0.0992,0.0992 -0.15498,0.23384 -0.15498,0.37418 0,0.14034 0.0558,0.27494 0.15498,0.37418 0.0992,0.0992 0.23384,0.15499 0.37418,0.15499 z"
       style="fill:#e69f00;fill-opacity:1;stroke:#e69f00;stroke-width:0.352778;stroke-linecap:butt;stroke-linejoin:round;stroke-opacity:1" />
    <path
       id="use238-4-4-0-9"
       d="m 147.93217,127.82741 c 0.14034,0 0.27494,-0.0558 0.37417,-0.15499 0.0992,-0.0992 0.15499,-0.23384 0.15499,-0.37418 0,-0.14034 -0.0558,-0.27494 -0.15499,-0.37418 -0.0992,-0.0992 -0.23383,-0.15499 -0.37417,-0.15499 -0.14034,0 -0.27493,0.0558 -0.37418,0.15499 -0.0992,0.0992 -0.15498,0.23384 -0.15498,0.37418 0,0.14034 0.0558,0.27494 0.15498,0.37418 0.0992,0.0992 0.23384,0.15499 0.37418,0.15499 z"
       style="fill:#009e73;fill-opacity:1;stroke:#009e73;stroke-width:0.352778;stroke-linecap:butt;stroke-linejoin:round;stroke-opacity:1" />
    <text
       style="font-style:normal;font-variant:normal;font-weight:normal;font-stretch:normal;font-size:4.23333px;line-height:normal;font-family:'Helvetica Neue', Helvetica, Arial, sans-serif;stroke-width:0.352778;stroke-linecap:butt;stroke-linejoin:round"
       id="text268-17"
       x="149.98296"
       y="116.3946">SEISMIC</text>
    <text
       style="font-style:normal;font-variant:normal;font-weight:normal;font-stretch:normal;font-size:4.23333px;line-height:normal;font-family:'Helvetica Neue', Helvetica, Arial, sans-serif;stroke-width:0.352778;stroke-linecap:butt;stroke-linejoin:round"
       id="text268-3-5"
       x="149.80939"
       y="120.53362">DANCE</text>
    <text
       style="font-style:normal;font-variant:normal;font-weight:normal;font-stretch:normal;font-size:4.23333px;line-height:normal;font-family:'Helvetica Neue', Helvetica, Arial, sans-serif;stroke-width:0.352778;stroke-linecap:butt;stroke-linejoin:round"
       id="text268-1-5"
       x="149.80939"
       y="124.67263">DRACO</text>
    <text
       style="font-style:normal;font-variant:normal;font-weight:normal;font-stretch:normal;font-size:4.23333px;line-height:normal;font-family:'Helvetica Neue', Helvetica, Arial, sans-serif;stroke-width:0.352778;stroke-linecap:butt;stroke-linejoin:round"
       id="text268-3-7-4"
       x="149.80939"
       y="128.80952">DREEM</text>
    <path
       style="fill:none;stroke:#009e73;stroke-width:0.502296;stroke-linecap:square;stroke-linejoin:round"
       id="path271"
       d="" />
    <path
       style="fill:none;stroke:#009e73;stroke-width:0.502296;stroke-linecap:square;stroke-linejoin:round"
       id="path304"
       d="" />
    <path
       style="fill:none;stroke:#009e73;stroke-width:0.502296;stroke-linecap:square;stroke-linejoin:round"
       id="path337"
       d="" />
    <path
       style="fill:none;stroke:#009e73;stroke-width:0.502296;stroke-linecap:square;stroke-linejoin:round"
       id="path370"
       d="" />
    <path
       style="fill:none;stroke:#009e73;stroke-width:0.502296;stroke-linecap:square;stroke-linejoin:round"
       id="path403"
       d="" />
  </g>
</svg>
